<svg xmlns="http://www.w3.org/2000/svg" width="100" height="66.921" viewBox="0 0 100 66.921"><defs><style>.a{fill:#12162d;}.b{fill:#dc0c41;}.c{fill:#d88d0a;}.d{fill:#ffb51e;}</style></defs><g transform="translate(-34.036 -13.559)"><g transform="translate(34.036 69.302)"><path class="a" d="M190.827,258.184h-4.846a2.149,2.149,0,0,1-2.431-2.431v-3.344a2.149,2.149,0,0,1,2.431-2.431h5.775l.742-1.486h-6.889q-3.917,0-3.917,3.917v3.344q0,3.916,3.917,3.917H192.7V254.08l-1.875.742Z" transform="translate(-165.758 -248.491)"/><path class="a" d="M211.379,248.491l-5.217,11.178,2.211-.743.861-1.857h6.146l.877,1.857,2.2.743-5.217-11.178Zm-1.469,7.075,2.4-5.1,2.4,5.1Z" transform="translate(-176.939 -248.491)"/><path class="a" d="M239.884,253.809l-4.475-5.319h-1.857v11.178l1.857-.743V250.8l4.475,5.319,4.474-5.319v8.122l1.858.743V248.491h-1.858Z" transform="translate(-189.455 -248.491)"/><path class="a" d="M264.977,258.183v-3.361h6.67v-1.486h-6.67v-3.359h7.835l.743-1.486H263.12v11.178h10.62L273,258.183Z" transform="translate(-202.965 -248.491)"/><path class="a" d="M294.863,253.337h-4.474a1.637,1.637,0,0,1-1.19-.489,1.671,1.671,0,0,1,0-2.381,1.639,1.639,0,0,1,1.19-.489h6.517l.743-1.486h-7.632q-3.176,0-3.175,3.166t3.175,3.165h4.474a1.681,1.681,0,0,1,0,3.362h-6.72l-.743,1.485h7.834q3.157,0,3.158-3.174Q298.021,253.337,294.863,253.337Z" transform="translate(-213.805 -248.491)"/><path class="a" d="M312.874,255.438h10.771a2.055,2.055,0,0,0,2.055-2.055H312.874Z" transform="translate(-225.7 -250.726)"/><path class="a" d="M312.874,261.682h9.511a2.056,2.056,0,0,0,2.056-2.055H312.874Z" transform="translate(-225.7 -253.579)"/><path class="a" d="M165.176,255.438h-10.77a2.055,2.055,0,0,1-2.055-2.055h12.825Z" transform="translate(-152.351 -250.726)"/><path class="a" d="M166.237,261.682h-9.51a2.055,2.055,0,0,1-2.055-2.055h11.565Z" transform="translate(-153.412 -253.579)"/></g><g transform="translate(34.037 13.559)"><path class="b" d="M302.467,141.456a20.7,20.7,0,0,0-7.6-8.144,21.261,21.261,0,0,0-21.486,0,20.716,20.716,0,0,0-7.6,8.145,26.631,26.631,0,0,0,0,23.719,20.644,20.644,0,0,0,7.6,8.177,21.265,21.265,0,0,0,21.486,0,20.649,20.649,0,0,0,7.6-8.176,26.619,26.619,0,0,0,0-23.72ZM284.02,168.579c-8.011,0-14.507-6.826-14.507-15.247s6.5-15.246,14.507-15.246,14.509,6.826,14.509,15.246S292.033,168.579,284.02,168.579Z" transform="translate(-205.256 -129.213)"/><path class="b" d="M242.867,130.267a4.935,4.935,0,1,0,4.788,4.932A4.862,4.862,0,0,0,242.867,130.267Z" transform="translate(-190.722 -129.137)"/><path class="b" d="M3.642,0h0A3.641,3.641,0,0,1,7.283,3.641V30.424a3.641,3.641,0,0,1-3.641,3.641h0A3.642,3.642,0,0,1,0,30.423V3.642A3.642,3.642,0,0,1,3.642,0Z" transform="translate(48.505 12.988)"/><path class="b" d="M171.515,202.526a.7.7,0,0,0-.035-.11l0,.008a.528.528,0,0,0-.031-.065l-.21-.419-.069-.137-.022-.044h0c-.774-1.517-1.594-2.963-2.45-4.389a1.214,1.214,0,0,0-.944-.335,50.38,50.38,0,0,1-17.882-2.465c-9.147-2.924-17.367-7.166-21.832-16.4a15.352,15.352,0,0,0,3.34,7.96,1.642,1.642,0,0,1,.211,2c-.841,1.693-1.578,3.439-2.355,5.165l-4.847,10.755.147.084,10.644-12.983a.643.643,0,0,1,.438-.221.673.673,0,0,1,.452.121l0,0c10.175,7.452,21.577,11.088,33.89,12.189l0,0,.828.072h.067l.019,0c.011,0,.022,0,.033,0,.029,0,.057,0,.083-.008l.029-.006a.514.514,0,0,0,.381-.25l0-.007a.706.706,0,0,0,.109-.252.57.57,0,0,0,.012-.13.619.619,0,0,0-.012-.12Z" transform="translate(-124.394 -157.087)"/><path class="b" d="M169.311,163.2h0l0,0a1.463,1.463,0,0,0-.1-.224l-14.867-31.819a1.416,1.416,0,0,0-2.594-.277q-.048.1-.094.209l-9.695,21.66a19.848,19.848,0,0,1-4.907-5.842,16.262,16.262,0,0,0,1.421,3.968,19.948,19.948,0,0,0,7.366,7.132,51.055,51.055,0,0,0,19.435,6.767c.784.119,1.577.207,2.381.288a1.428,1.428,0,0,0,.329.04l.043,0a1.415,1.415,0,0,0,1.374-1.414A1.4,1.4,0,0,0,169.311,163.2Zm-11.672-3.926a.631.631,0,0,1-.6.242,40,40,0,0,1-8.483-2.66.658.658,0,0,1-.343-.521.647.647,0,0,1,.151-.474l3.995-4.855h0l.079-.095a.643.643,0,0,1,.519-.177.626.626,0,0,1,.429.247l.123.217v0h0l4.164,7.321h0l.041.074A.65.65,0,0,1,157.639,159.275Z" transform="translate(-131.777 -129.067)"/><g transform="translate(0.885)"><path class="c" d="M138.321,128.429h0v0c0-.014-.01-.026-.015-.039-.339-1.057-1.543-.781-1.543-.781s-.022.393-.044.588l-8.675,3.775c-.045-.03-.234.012-.234.012l-.744.036c0,.005,0,.01-.007.016l-.54.032s.037.553,1.043.605h0c.132.015.292.026.489.034l1.8.065a16.486,16.486,0,0,0-2.7,8.612c.034,3.1,1.293,6.521,5.3,9.459l-.037-.038a9.047,9.047,0,0,1-1.486-2.227l-.071-.152c-.037-.085-.086-.2-.139-.357a8.1,8.1,0,0,1-.425-2.521c-.036-2.182.682-5.378,3.935-9.038l.619,1.443-.263.213s.492.927.928.757c.151-.025.305-.264.434-.912l2.3-8.621A1.905,1.905,0,0,0,138.321,128.429Z" transform="translate(-126.518 -127.564)"/><path class="d" d="M136.284,127.734,127,131.774s-1.378.439.52.511l1.8.065a16.482,16.482,0,0,0-2.7,8.612c.035,3.1,1.293,6.521,5.3,9.459l-.037-.038a9.045,9.045,0,0,1-1.486-2.227c-.023-.05-.048-.1-.071-.152-.037-.085-.085-.2-.139-.357a8.1,8.1,0,0,1-.425-2.522c-.036-2.181.682-5.377,3.936-9.038l.639,1.488s.667,2.077,1.079.013l2.3-8.622C138.189,127.22,136.947,127.486,136.284,127.734Z" transform="translate(-126.518 -127.554)"/></g></g></g></svg>