<svg xmlns="http://www.w3.org/2000/svg" width="25" height="17.691" viewBox="0 0 25 17.691"><defs><style>.a{fill:#bcbcbc;}</style></defs><g transform="translate(0 0)"><path class="a" d="M3405.435-1247.918l-6.836,3.26a.275.275,0,0,1-.393-.248v-6.725a.274.274,0,0,1,.4-.245l6.836,3.464a.274.274,0,0,1-.006.493Zm3.512-9.2h-14.616a5.192,5.192,0,0,0-5.192,5.192v7.306a5.192,5.192,0,0,0,5.192,5.192h14.616a5.193,5.193,0,0,0,5.192-5.192v-7.306a5.192,5.192,0,0,0-5.192-5.192Z" transform="translate(-3389.139 1257.119)"/></g></svg>