<svg xmlns="http://www.w3.org/2000/svg" width="79.785" height="79.785" viewBox="0 0 79.785 79.785"><defs><style>.a{fill:#feaf18;}.b{fill:#e7234f;}.c{fill:#231f20;}.d{fill:#fff;}.e{opacity:0.1;}</style></defs><g transform="translate(169.766 1937.59)"><g transform="translate(-169.766 -1937.59)"><circle class="a" cx="39.893" cy="39.893" r="39.893"/><g transform="translate(8.297 8.298)"><g transform="translate(1.488 1.487)"><circle class="b" cx="30.108" cy="30.108" r="30.108"/></g><path class="c" d="M-132.591-1868.821a31.632,31.632,0,0,1-31.6-31.6,31.632,31.632,0,0,1,31.6-31.594A31.63,31.63,0,0,1-101-1900.416,31.63,31.63,0,0,1-132.591-1868.821Zm0-60.215a28.654,28.654,0,0,0-28.621,28.62,28.654,28.654,0,0,0,28.621,28.621,28.651,28.651,0,0,0,28.62-28.621A28.652,28.652,0,0,0-132.591-1929.036Z" transform="translate(164.186 1932.01)"/></g><g transform="translate(30.246 25.529)"><path class="d" d="M-128.626-1920.422v4.1h-5l1.865,4.177h3.111v4.116h-3.2c-1.743,5.743-5.584,8.471-11.471,8.312l9.007,9.005-3.026,3.029c-.1-.1-.257-.234-.4-.379q-5.621-5.617-11.245-11.23a1.317,1.317,0,0,1-.433-1.063c.028-1.148.009-2.3.009-3.521h.743c2.242,0,4.488.048,6.729-.019a6.009,6.009,0,0,0,5.514-3.636c.054-.112.086-.232.164-.443h-13.108v-4.147h13.114a5.8,5.8,0,0,0-.235-.65,6.127,6.127,0,0,0-5.67-3.518c-2.156-.04-4.314-.009-6.471-.01h-.758v-4.125Z" transform="translate(149.426 1920.422)"/></g></g><path class="e" d="M-134.137-1930.352l-14.412,58.238,11.912,1.618,11.9-3.183,7.662-8.141,5.752-10.88,1.9-10.3-2.154-8.529-4.123-7.19-6.812-7.076-6.534-4.05Z" transform="translate(10.332 3.525)"/></g></svg>