<svg xmlns="http://www.w3.org/2000/svg" width="26" height="26.002" viewBox="0 0 26 26.002"><defs><style>.a{fill:#bcbcbc;stroke:rgba(0,0,0,0);stroke-miterlimit:10;}</style></defs><g transform="translate(0.5 0.5)"><g transform="translate(0 -0.002)"><path class="a" d="M18506.162,9397a12.471,12.471,0,1,1,1.994-.146,12.76,12.76,0,0,0,1.66-.379l.014-8.03h2.957a.52.52,0,0,0,.52-.465l.326-2.761a.523.523,0,0,0-.516-.586h-3.3v-2.3c0-1.058.307-1.762,1.795-1.762H18513a.527.527,0,0,0,.529-.525v-2.323a.527.527,0,0,0-.529-.525h-2.264c-2.867,0-4.648,1.831-4.648,4.777v2.663h-2.221a.522.522,0,0,0-.521.53l.01,2.756a.525.525,0,0,0,.525.525h2.223l-.016,8.551h0c.027,0,.053,0,.078,0Z" transform="translate(-18493.74 -9371.998)"/></g></g></svg>