<svg xmlns="http://www.w3.org/2000/svg" width="53.947" height="84.126" viewBox="0 0 53.947 84.126"><defs><style>.a{fill:#12162d;}.b{fill:#feaf18;}.c{fill:#e7234f;}.d{fill:#fff;}.e{opacity:0.1;}.f{fill:#ffb51e;}</style></defs><rect class="a" width="53.947" height="84.126" rx="8.059"/><rect class="b" width="47.029" height="77.061" rx="4.49" transform="translate(3.459 3.395)"/><rect class="c" width="47.029" height="47.029" transform="translate(3.459 17.43)"/><rect class="d" width="19.74" height="1.983" rx="0.991" transform="translate(17.104 76.687)"/><path class="e" d="M2860.682-1092.428l-14.994,77.061h26.035a3.764,3.764,0,0,0,3.765-3.764v-69.533a3.764,3.764,0,0,0-3.765-3.765Z" transform="translate(-2824.999 1095.823)"/><rect class="f" width="11" height="11" transform="translate(12.974 26.306)"/><rect class="f" width="11" height="11" transform="translate(12.974 42.306)"/><rect class="f" width="11" height="11" transform="translate(28.974 26.306)"/><rect class="f" width="11" height="11" transform="translate(28.974 42.306)"/><rect class="d" width="47.029" height="2.459" transform="translate(3.459 15.734)"/><rect class="d" width="47.029" height="2.459" transform="translate(3.459 62.527)"/></svg>