<svg xmlns="http://www.w3.org/2000/svg" width="90.142" height="74.879" viewBox="0 0 90.142 74.879"><defs><style>.a{fill:#feaf18;}.b{fill:#12162d;}.c{fill:#e7234f;}</style></defs><g transform="translate(59.627 1935.444)"><g transform="translate(-59.627 -1935.444)"><path class="a" d="M-11.4-1880.367l-4.672-4.276,12.829-12.76,16.8,16.763a38.873,38.873,0,0,1-39.632,18.067,39.426,39.426,0,0,1-32.187-31.54c-2.985-16.915,5.067-32.744,17.832-40.387l16.924,16.883-12.922,12.8-4.224-4.609c-3.124,6.906-1.939,17.055,4.712,23.911A22.455,22.455,0,0,0-11.4-1880.367Z" transform="translate(59.957 1935.863)"/><path class="b" d="M-19.356-1860.565a42.01,42.01,0,0,1-6.558-.52A40.4,40.4,0,0,1-59-1893.505c-2.915-16.512,4.455-33.192,18.34-41.506l.725-.433,18.291,18.249-14.5,14.358-3.807-4.156a21.518,21.518,0,0,0,5.11,21.142,21.369,21.369,0,0,0,21.742,5.517l-4.215-3.859,14.4-14.319,18.154,18.119-.429.725A40.162,40.162,0,0,1-19.356-1860.565Zm-20.905-72.148c-12.655,7.995-19.311,23.485-16.6,38.83a38.2,38.2,0,0,0,31.289,30.658,38.059,38.059,0,0,0,38.094-16.833l-15.428-15.4-11.262,11.2,5.063,4.631-1.522.668a23.471,23.471,0,0,1-25.757-5.386c-7.289-7.514-7.995-18.32-4.923-25.11l.677-1.5,4.572,4.991,11.348-11.241Z" transform="translate(59.627 1935.444)"/><g transform="translate(40.677 14.609)"><path class="c" d="M-20.432-1911.972v3.934H-31.45v-3.934l5.78-6.107a3.84,3.84,0,0,0,.8-1.071,2.6,2.6,0,0,0,.231-1.1,1.225,1.225,0,0,0-.354-.948,1.46,1.46,0,0,0-1.031-.326,19.729,19.729,0,0,0-2.036.123q-1.167.121-2.6.393v-3.663a16,16,0,0,1,2.51-.476,24.723,24.723,0,0,1,2.916-.176,4.99,4.99,0,0,1,3.543,1.181,4.26,4.26,0,0,1,1.262,3.27,6.568,6.568,0,0,1-.42,2.457,6.56,6.56,0,0,1-1.426,2.076l-4.178,4.368Z" transform="translate(31.45 1925.324)"/><path class="c" d="M-9.685-1915.638v3.664h-1.846v3.853h-4.207v-3.853h-7.028v-3.664l1.926-9.5H-16.8l-1.709,9.5h2.767v-6.512h4.207v6.512Z" transform="translate(35.302 1925.407)"/><path class="c" d="M6.284-1924.773v3.8l-6.54,13.215H-5l6.784-13.215H-4.76v-3.8Z" transform="translate(43.182 1925.568)"/></g></g><g transform="translate(7.969 -1922.827)"><path class="b" d="M-3.113-1926.7l-6.46,23.755H-12.8l6.46-23.755Z" transform="translate(12.803 1926.704)"/></g></g></svg>