<svg xmlns="http://www.w3.org/2000/svg" width="105.428" height="84.127" viewBox="0 0 105.428 84.127"><defs><style>.a{fill:#fff;}.b{fill:#12162d;}.c{opacity:0.1;}.d{fill:#e7234f;}.e{fill:#f8af23;}</style></defs><g transform="translate(262.099 1942.429)"><g transform="translate(-262.099 -1942.429)"><rect class="a" width="102.653" height="38.701" rx="3.165" transform="translate(1.388 1.388)"/><path class="b" d="M-162.449-1900.953H-256.32a5.785,5.785,0,0,1-5.779-5.778v-29.918a5.786,5.786,0,0,1,5.779-5.779h93.871a5.786,5.786,0,0,1,5.778,5.779v29.918A5.785,5.785,0,0,1-162.449-1900.953Zm-93.871-38.7a3.009,3.009,0,0,0-3,3v29.918a3.008,3.008,0,0,0,3,3h93.871a3.007,3.007,0,0,0,3-3v-29.918a3.008,3.008,0,0,0-3-3Z" transform="translate(262.099 1942.429)"/><path class="c" d="M-179.086-1941.429h-26.9l-13.2,38.7h40.094a4.391,4.391,0,0,0,4.392-4.39v-29.918A4.392,4.392,0,0,0-179.086-1941.429Z" transform="translate(278.735 1942.817)"/><g transform="translate(28.012 26.229)"><path class="d" d="M-196.35-1865.629h-41.72a3.843,3.843,0,0,1-3.842-3.842v-54.056h49.4v54.056A3.843,3.843,0,0,1-196.35-1865.629Z" transform="translate(241.912 1923.527)"/></g><path class="e" d="M-236.126-1922.527v44.586s5.077.137,5.352,4.941h23.193a4.939,4.939,0,0,1,4.8-5.215v-44.312Z" transform="translate(272.167 1950.143)"/><g transform="translate(12.916 24.841)"><rect class="b" width="79.597" height="2.775"/></g><g transform="translate(14.234 9.752)"><rect class="e" width="7.868" height="7.868" rx="2.835" transform="translate(0.694 0.694)"/><path class="b" d="M-247.213-1926.146a4.633,4.633,0,0,1-4.628-4.628,4.633,4.633,0,0,1,4.628-4.628,4.633,4.633,0,0,1,4.629,4.628A4.633,4.633,0,0,1-247.213-1926.146Zm0-7.868a3.245,3.245,0,0,0-3.24,3.24,3.244,3.244,0,0,0,3.24,3.24,3.244,3.244,0,0,0,3.241-3.24A3.245,3.245,0,0,0-247.213-1934.013Z" transform="translate(251.841 1935.401)"/></g><rect class="d" width="7.868" height="7.868" rx="2.835" transform="translate(29.476 10.446)"/><path class="c" d="M-210.289-1923.527l-19.672,57.9h28.979a3.842,3.842,0,0,0,3.842-3.842v-54.056Z" transform="translate(274.556 1949.756)"/></g><g transform="translate(-262.099 -1942.429)"><rect class="a" width="102.653" height="38.701" rx="3.165" transform="translate(1.388 1.388)"/><path class="b" d="M-162.449-1900.953H-256.32a5.785,5.785,0,0,1-5.779-5.778v-29.918a5.786,5.786,0,0,1,5.779-5.779h93.871a5.786,5.786,0,0,1,5.778,5.779v29.918A5.785,5.785,0,0,1-162.449-1900.953Zm-93.871-38.7a3.009,3.009,0,0,0-3,3v29.918a3.008,3.008,0,0,0,3,3h93.871a3.007,3.007,0,0,0,3-3v-29.918a3.008,3.008,0,0,0-3-3Z" transform="translate(262.099 1942.429)"/></g><path class="c" d="M-179.086-1941.429h-26.9l-13.2,38.7h40.094a4.391,4.391,0,0,0,4.392-4.39v-29.918A4.392,4.392,0,0,0-179.086-1941.429Z" transform="translate(16.636 0.388)"/><g transform="translate(-234.087 -1916.2)"><path class="d" d="M-196.35-1865.629h-41.72a3.843,3.843,0,0,1-3.842-3.842v-54.056h49.4v54.056A3.843,3.843,0,0,1-196.35-1865.629Z" transform="translate(241.912 1923.527)"/></g><path class="e" d="M-236.126-1922.527v44.586s5.077.137,5.352,4.941h23.193a4.939,4.939,0,0,1,4.8-5.215v-44.312Z" transform="translate(10.068 7.714)"/><g transform="translate(-249.183 -1917.588)"><rect class="b" width="79.597" height="2.775"/></g><g transform="translate(-247.865 -1932.677)"><rect class="e" width="7.868" height="7.868" rx="2.835" transform="translate(0.694 0.694)"/><path class="b" d="M-247.213-1926.146a4.633,4.633,0,0,1-4.628-4.628,4.633,4.633,0,0,1,4.628-4.628,4.633,4.633,0,0,1,4.629,4.628A4.633,4.633,0,0,1-247.213-1926.146Zm0-7.868a3.245,3.245,0,0,0-3.24,3.24,3.244,3.244,0,0,0,3.24,3.24,3.244,3.244,0,0,0,3.241-3.24A3.245,3.245,0,0,0-247.213-1934.013Z" transform="translate(251.841 1935.401)"/></g><rect class="d" width="7.868" height="7.868" rx="2.835" transform="translate(-232.623 -1931.983)"/><g transform="translate(-216.243 -1902.459)"><path class="a" d="M-213.9-1913.624v2.988h-3.645l1.36,3.043h2.265v3h-2.331c-1.27,4.184-4.067,6.171-8.355,6.055l6.561,6.558-2.2,2.208c-.074-.071-.187-.171-.294-.276q-4.092-4.092-8.19-8.18a.962.962,0,0,1-.315-.774c.021-.837.007-1.674.007-2.566h.541c1.633,0,3.268.035,4.9-.012a4.378,4.378,0,0,0,4.016-2.649c.039-.08.062-.169.119-.323h-9.548v-3.021h9.552a4.209,4.209,0,0,0-.171-.473,4.463,4.463,0,0,0-4.13-2.563c-1.572-.029-3.143-.007-4.715-.007h-.552v-3Z" transform="translate(229.052 1913.624)"/></g><path class="c" d="M-210.289-1923.527l-19.672,57.9h28.979a3.842,3.842,0,0,0,3.842-3.842v-54.056Z" transform="translate(12.457 7.327)"/></g></svg>