<svg xmlns="http://www.w3.org/2000/svg" width="72.694" height="85.562" viewBox="0 0 72.694 85.562"><defs><style>.a{fill:#e7234f;stroke:#12162d;stroke-width:2px;}.b{fill:#c90d3e;}.c{fill:#fec933;}.d{fill:#ea950c;}.e{fill:#feaf18;}.f{fill:#ffbc50;}.g{fill:none;stroke:#fff;stroke-width:5px;}.h{fill:#fff;font-size:32px;font-family:Arial-BoldMT, Arial;font-weight:700;}</style></defs><path class="a" d="M2354.926-1072.042l-16.8-6.2-16.8,6.2v-45.911h33.6Z" transform="translate(-2301.779 1156.169)"/><rect class="b" width="31.071" height="8.912" transform="translate(21.076 62.725)"/><path class="c" d="M2345.624-1179.559a1.284,1.284,0,0,1-.1-1.906,3.622,3.622,0,0,0,.993-3.187,3.729,3.729,0,0,0-2.006-2.649,1.294,1.294,0,0,1-.559-1.832,3.587,3.587,0,0,0,.2-3.321,3.828,3.828,0,0,0-2.589-2.133,1.315,1.315,0,0,1-.984-1.658,3.6,3.6,0,0,0-.6-3.275,3.92,3.92,0,0,0-3.031-1.5,1.344,1.344,0,0,1-1.357-1.4,3.65,3.65,0,0,0-1.376-3.053,3.986,3.986,0,0,0-3.31-.789,1.374,1.374,0,0,1-1.656-1.057,3.733,3.733,0,0,0-2.073-2.665,4.01,4.01,0,0,0-3.411-.034,1.4,1.4,0,0,1-1.865-.661,3.832,3.832,0,0,0-2.658-2.134,3.987,3.987,0,0,0-3.326.724,1.413,1.413,0,0,1-1.974-.23,3.925,3.925,0,0,0-3.1-1.486,3.925,3.925,0,0,0-2.973,1.338,1.393,1.393,0,0,1-1.877.2,3.985,3.985,0,0,0-3.255-.7,3.838,3.838,0,0,0-2.652,2.06,1.4,1.4,0,0,1-1.877.631,4.013,4.013,0,0,0-3.464-.019,3.739,3.739,0,0,0-2.085,2.592,1.376,1.376,0,0,1-1.674,1.03,3.992,3.992,0,0,0-3.375.749,3.652,3.652,0,0,0-1.4,2.985,1.346,1.346,0,0,1-1.381,1.373,3.927,3.927,0,0,0-3.1,1.478,3.6,3.6,0,0,0-.649,3.215,1.317,1.317,0,0,1-1.013,1.642,3.836,3.836,0,0,0-2.665,2.125,3.581,3.581,0,0,0,.142,3.273,1.3,1.3,0,0,1-.591,1.823,3.737,3.737,0,0,0-2.082,2.659,3.613,3.613,0,0,0,.925,3.153,1.285,1.285,0,0,1-.136,1.9,3.651,3.651,0,0,0-1.386,3.049,3.682,3.682,0,0,0,1.658,2.862,1.287,1.287,0,0,1,.325,1.883,3.6,3.6,0,0,0-.615,3.274,3.776,3.776,0,0,0,2.3,2.417,1.3,1.3,0,0,1,.77,1.76,3.584,3.584,0,0,0,.188,3.322,3.875,3.875,0,0,0,2.821,1.841,1.328,1.328,0,0,1,1.171,1.542,3.62,3.62,0,0,0,.983,3.19,3.954,3.954,0,0,0,3.187,1.166,1.358,1.358,0,0,1,1.511,1.241,3.689,3.689,0,0,0,1.723,2.886,4,4,0,0,0,3.382.428,1.386,1.386,0,0,1,1.768.872,3.781,3.781,0,0,0,2.371,2.425,4.006,4.006,0,0,0,3.394-.333,1.407,1.407,0,0,1,1.93.457,3.88,3.88,0,0,0,2.889,1.834,3.968,3.968,0,0,0,3.223-1.077,1.413,1.413,0,0,1,1.987.016,3.961,3.961,0,0,0,3.253,1.144,3.883,3.883,0,0,0,2.875-1.762,1.408,1.408,0,0,1,1.938-.426,4.009,4.009,0,0,0,3.44.392,3.785,3.785,0,0,0,2.374-2.352,1.388,1.388,0,0,1,1.783-.843,4.008,4.008,0,0,0,3.442-.382,3.691,3.691,0,0,0,1.744-2.815,1.36,1.36,0,0,1,1.532-1.216,3.963,3.963,0,0,0,3.257-1.135,3.618,3.618,0,0,0,1.02-3.125,1.33,1.33,0,0,1,1.2-1.523,3.884,3.884,0,0,0,2.9-1.826,3.584,3.584,0,0,0,.241-3.267,1.3,1.3,0,0,1,.8-1.748,3.785,3.785,0,0,0,2.379-2.419,3.6,3.6,0,0,0-.552-3.232,1.288,1.288,0,0,1,.358-1.878,3.688,3.688,0,0,0,1.732-2.881A3.644,3.644,0,0,0,2345.624-1179.559Z" transform="translate(-2274.251 1213.803)"/><path class="d" d="M23.2,0C36.138.124,46.724,11.1,46.847,24.507s-10.265,24.185-23.2,24.062S.124,37.475,0,24.063,10.266-.122,23.2,0Z" transform="translate(7.241 52.397) rotate(-76.353)"/><path class="e" d="M2385.762-1178.625" transform="translate(-2339.458 1192.651)"/><path class="f" d="M2325.226-1183.363l-17.1,35.65-2.07-2.128-2.235-6.945.3-8.288,3.929-8.569,6.477-6.012,6.378-2.866Z" transform="translate(-2291.543 1195.5)"/><path class="g" d="M23.2,0C36.138.124,46.724,11.1,46.847,24.507s-10.265,24.185-23.2,24.062S.124,37.475,0,24.063,10.266-.122,23.2,0Z" transform="translate(7.241 52.397) rotate(-76.353)"/><text class="h" transform="translate(21.077 45.932)"><tspan x="0" y="0">%</tspan></text></svg>