<svg xmlns="http://www.w3.org/2000/svg" width="25" height="25" viewBox="0 0 25 25"><defs><style>.a{fill:#bcbcbc;}</style></defs><path class="a" d="M3661.641-1268.062h-10.1a7.456,7.456,0,0,0-7.448,7.448v10.1a7.456,7.456,0,0,0,7.448,7.448h10.1a7.456,7.456,0,0,0,7.448-7.448v-10.1A7.456,7.456,0,0,0,3661.641-1268.062Zm4.933,17.552a4.933,4.933,0,0,1-4.933,4.933h-10.1a4.933,4.933,0,0,1-4.933-4.933v-10.1a4.933,4.933,0,0,1,4.933-4.932h10.1a4.933,4.933,0,0,1,4.933,4.932Zm-9.985-11.518a6.473,6.473,0,0,0-6.466,6.466,6.473,6.473,0,0,0,6.466,6.466,6.473,6.473,0,0,0,6.466-6.466A6.473,6.473,0,0,0,3656.589-1262.028Zm0,10.417a3.95,3.95,0,0,1-3.951-3.951,3.951,3.951,0,0,1,3.951-3.951,3.951,3.951,0,0,1,3.951,3.951A3.951,3.951,0,0,1,3656.589-1251.611Zm8.028-10.368a1.55,1.55,0,0,1-1.55,1.55,1.549,1.549,0,0,1-1.549-1.55,1.549,1.549,0,0,1,1.549-1.549A1.549,1.549,0,0,1,3664.617-1261.979Z" transform="translate(-3644.089 1268.062)"/></svg>