<svg xmlns="http://www.w3.org/2000/svg" width="74.777" height="84.127" viewBox="0 0 74.777 84.127"><defs><style>.a{fill:#12162d;}.b{fill:#555c73;}.c{fill:#fec933;}.d{fill:#ffb51e;}.e{fill:#e7234f;}.f{fill:#fff;}</style></defs><path class="a" d="M2642.107-1172.61c8.794,4.377,19.139,6.477,27.788,7.067v24.7c0,6.59-.653,11.3-3.993,15.849-4.018,5.48-11.82,10.644-23.8,15.736h0v10.025h0c34.536-13.705,37.389-26.967,37.389-41.609v-33.928c-1.605.144-3.169.19-4.509.19-9.7,0-23.45-2.355-32.88-8.779h0v10.753Z" transform="translate(-2604.719 1183.363)"/><path class="b" d="M2574.448-1174.774v33.928c0,14.643,2.853,27.9,37.389,41.609v-10.025c-11.974-5.092-19.777-10.256-23.8-15.736-3.338-4.552-3.992-9.258-3.992-15.849v-24.7c8.656-.59,19-2.691,27.789-7.066v-10.753c-9.43,6.424-23.178,8.779-32.88,8.779C2577.617-1174.583,2576.054-1174.629,2574.448-1174.774Z" transform="translate(-2574.448 1183.363)"/><path class="c" d="M2584.218-1163.885v28.434c0,7.587.753,13,4.6,18.245,4.626,6.308,13.61,12.253,27.394,18.114v-72.927C2606.088-1166.983,2594.183-1164.565,2584.218-1163.885Z" transform="translate(-2578.819 1178.038)"/><path class="d" d="M2669.5-1117.207c3.844-5.242,4.6-10.659,4.6-18.245v-28.433c-9.957-.678-21.866-3.1-31.99-8.135h0v72.927h0C2655.893-1104.954,2664.874-1110.9,2669.5-1117.207Z" transform="translate(-2604.719 1178.038)"/><path class="e" d="M2625.369-1147.034h0c-11.49,0-20.8,8.943-20.8,19.976h0c0,11.032,9.314,19.976,20.8,19.976h0c11.49,0,20.8-8.943,20.8-19.976h0C2646.173-1138.091,2636.859-1147.034,2625.369-1147.034Z" transform="translate(-2587.922 1166.31)"/><path class="f" d="M2620.076-1119.034l7.43,3.989,18.215-12.2-18.056,18.948Z" transform="translate(-2594.862 1157.02)"/></svg>