<svg xmlns="http://www.w3.org/2000/svg" width="120" height="80.305" viewBox="0 0 120 80.305"><defs><style>.a{fill:#fff;}.b{fill:#c4c4c4;}</style></defs><g transform="translate(0 66.892)"><path class="a" d="M192.654,260.122h-5.816a2.579,2.579,0,0,1-2.918-2.918v-4.013a2.579,2.579,0,0,1,2.918-2.918h6.931l.89-1.783h-8.266q-4.7,0-4.7,4.7V257.2q0,4.7,4.7,4.7H194.9V255.2l-2.25.891Z" transform="translate(-162.571 -248.491)"/><path class="a" d="M212.423,248.491,206.162,261.9l2.653-.892,1.034-2.228h7.376l1.053,2.228,2.635.892-6.261-13.413Zm-1.763,8.49,2.877-6.12,2.878,6.12Z" transform="translate(-171.095 -248.491)"/><path class="a" d="M241.151,254.873l-5.37-6.382h-2.228V261.9l2.228-.892v-9.746l5.37,6.383,5.369-6.383v9.746l2.229.892V248.491H246.52Z" transform="translate(-180.636 -248.491)"/><path class="a" d="M265.349,260.122v-4.034h8v-1.783h-8v-4.031h9.4l.891-1.783H263.12V261.9h12.744l-.892-1.782Z" transform="translate(-190.935 -248.491)"/><path class="a" d="M296.467,254.306H291.1a1.964,1.964,0,0,1-1.428-.587,2.005,2.005,0,0,1,0-2.858,1.967,1.967,0,0,1,1.428-.587h7.821l.892-1.783h-9.158q-3.811,0-3.81,3.8t3.81,3.8h5.369a2.017,2.017,0,0,1,0,4.034h-8.064l-.891,1.782h9.4q3.789,0,3.79-3.809Q300.257,254.306,296.467,254.306Z" transform="translate(-199.198 -248.491)"/><path class="a" d="M312.874,255.849H325.8a2.466,2.466,0,0,0,2.467-2.466H312.874Z" transform="translate(-208.265 -250.195)"/><path class="a" d="M312.874,262.093h11.413a2.467,2.467,0,0,0,2.467-2.466H312.874Z" transform="translate(-208.265 -252.37)"/><path class="a" d="M167.741,255.849H154.817a2.466,2.466,0,0,1-2.466-2.466h15.39Z" transform="translate(-152.351 -250.195)"/><path class="a" d="M168.549,262.093H157.138a2.466,2.466,0,0,1-2.466-2.466h13.877Z" transform="translate(-153.159 -252.37)"/></g><path class="a" d="M310.362,143.668a24.834,24.834,0,0,0-9.121-9.773,25.514,25.514,0,0,0-25.784,0,24.859,24.859,0,0,0-9.121,9.774,31.958,31.958,0,0,0,0,28.463,24.773,24.773,0,0,0,9.122,9.813,25.518,25.518,0,0,0,25.784,0,24.78,24.78,0,0,0,9.122-9.811,31.942,31.942,0,0,0,0-28.464Zm-22.137,32.547c-9.614,0-17.409-8.192-17.409-18.3s7.8-18.3,17.409-18.3,17.41,8.192,17.41,18.3S297.841,176.215,288.225,176.215Z" transform="translate(-193.709 -128.976)"/><path class="a" d="M243.825,130.267a5.922,5.922,0,1,0,5.746,5.919A5.834,5.834,0,0,0,243.825,130.267Z" transform="translate(-181.25 -128.911)"/><path class="a" d="M4.37,0h0A4.369,4.369,0,0,1,8.739,4.369v32.14A4.369,4.369,0,0,1,4.37,40.878h0A4.37,4.37,0,0,1,0,36.508V4.37A4.37,4.37,0,0,1,4.37,0Z" transform="translate(58.206 15.585)"/><path class="a" d="M180.939,207.4a.842.842,0,0,0-.041-.132l.005.009a.633.633,0,0,0-.037-.077l-.252-.5-.082-.164-.026-.052h0c-.929-1.82-1.913-3.556-2.94-5.266a1.457,1.457,0,0,0-1.132-.4,60.456,60.456,0,0,1-21.458-2.958c-10.976-3.509-20.841-8.6-26.2-19.676a18.422,18.422,0,0,0,4.009,9.552,1.971,1.971,0,0,1,.253,2.4c-1.009,2.032-1.893,4.127-2.826,6.2l-5.817,12.907.176.1,12.773-15.58a.772.772,0,0,1,.525-.265.808.808,0,0,1,.543.145l0,0c12.21,8.943,25.893,13.305,40.668,14.627l0,0,.993.086h.08l.023,0c.013,0,.026,0,.039,0,.035,0,.068-.006.1-.01l.035-.007a.616.616,0,0,0,.457-.3l0-.008a.847.847,0,0,0,.131-.3.687.687,0,0,0,.014-.155.743.743,0,0,0-.014-.144Z" transform="translate(-124.394 -152.87)"/><path class="a" d="M175.764,169.812h0l0,0a1.75,1.75,0,0,0-.125-.268L157.8,131.356a1.7,1.7,0,0,0-3.113-.332q-.057.125-.113.251l-11.634,25.992a23.818,23.818,0,0,1-5.889-7.01,19.516,19.516,0,0,0,1.706,4.761c2.064,3.733,5.277,6.358,8.839,8.558a61.266,61.266,0,0,0,23.322,8.12c.941.143,1.892.248,2.857.346a1.714,1.714,0,0,0,.395.048l.051,0a1.7,1.7,0,0,0,1.649-1.7A1.68,1.68,0,0,0,175.764,169.812ZM161.757,165.1a.757.757,0,0,1-.726.29,48,48,0,0,1-10.18-3.192.79.79,0,0,1-.411-.625.777.777,0,0,1,.181-.568l4.794-5.826h0l.094-.114a.772.772,0,0,1,.622-.213.751.751,0,0,1,.515.3l.147.26v0h0l5,8.785h0l.049.088A.78.78,0,0,1,161.757,165.1Z" transform="translate(-130.723 -128.851)"/><g transform="translate(1.062)"><path class="b" d="M140.681,128.6h0l0,0c-.005-.017-.012-.031-.017-.047-.406-1.268-1.852-.938-1.852-.938s-.026.471-.052.705l-10.41,4.529c-.054-.035-.28.014-.28.014l-.893.043c0,.007-.005.012-.008.019l-.648.039s.044.664,1.252.726h0c.158.017.35.031.587.04l2.164.078a19.783,19.783,0,0,0-3.244,10.334c.041,3.717,1.552,7.825,6.361,11.35,0,0-.016-.016-.044-.046a10.857,10.857,0,0,1-1.784-2.673c-.028-.061-.057-.121-.085-.183-.044-.1-.1-.245-.167-.428a9.715,9.715,0,0,1-.51-3.026c-.044-2.618.818-6.453,4.722-10.845l.743,1.731-.316.255s.591,1.112,1.113.909c.181-.03.366-.317.521-1.094l2.765-10.346A2.286,2.286,0,0,0,140.681,128.6Z" transform="translate(-126.518 -127.563)"/><path class="a" d="M138.238,127.77l-11.14,4.847s-1.654.526.624.613l2.165.078a19.778,19.778,0,0,0-3.244,10.334c.042,3.717,1.552,7.825,6.361,11.35l-.044-.046a10.853,10.853,0,0,1-1.783-2.673c-.028-.06-.057-.121-.085-.183-.044-.1-.1-.245-.166-.428a9.715,9.715,0,0,1-.51-3.026c-.043-2.617.819-6.453,4.723-10.845l.767,1.786s.8,2.493,1.3.016l2.765-10.346C140.523,127.153,139.033,127.472,138.238,127.77Z" transform="translate(-126.518 -127.554)"/></g></svg>